Coordinates
version=1
nRows=4
nColumns=63
inDegrees=yes

Units are S.I. units (second, meters, Newtons, ...)
If the header above contains a line with 'inDegrees', this indicates whether rotational values are in degrees (yes) or radians (no).

endheader
time	pelvis_tilt	pelvis_list	pelvis_rotation	pelvis_tx	pelvis_ty	pelvis_tz	hip_flexion_r	hip_adduction_r	hip_rotation_r	knee_angle_r	knee_angle_r_beta	ankle_angle_r	subtalar_angle_r	mtp_angle_r	hip_flexion_l	hip_adduction_l	hip_rotation_l	knee_angle_l	knee_angle_l_beta	ankle_angle_l	subtalar_angle_l	mtp_angle_l	L5_S1_Flex_Ext	L5_S1_Lat_Bending	L5_S1_axial_rotation	L4_L5_Flex_Ext	L4_L5_Lat_Bending	L4_L5_axial_rotation	L3_L4_Flex_Ext	L3_L4_Lat_Bending	L3_L4_axial_rotation	L2_L3_Flex_Ext	L2_L3_Lat_Bending	L2_L3_axial_rotation	L1_L2_Flex_Ext	L1_L2_Lat_Bending	L1_L2_axial_rotation	L1_T12_Flex_Ext	L1_T12_Lat_Bending	L1_T12_axial_rotation	Abs_r3	Abs_r2	Abs_r1	Abs_t1	Abs_t2	neck_flexion	neck_bending	neck_rotation	arm_flex_r	arm_add_r	arm_rot_r	elbow_flex_r	pro_sup_r	wrist_flex_r	wrist_dev_r	arm_flex_l	arm_add_l	arm_rot_l	elbow_flex_l	pro_sup_l	wrist_flex_l	wrist_dev_l
      1.33333333	     -3.22200907	     -1.05844958	    107.04565482	      0.25084727	      0.74816407	      0.84138614	      2.86386538	     -2.55877126	    -17.44755932	     15.85172732	      0.27666483	     33.84460829	      6.88531873	      0.00000000	     10.06172773	     -1.82576888	     -3.95230834	     25.83831393	      0.45096365	     33.77950404	      9.36396994	      0.00000000	     -0.14541155	     -0.33362671	      2.27980705	     -0.27004379	     -0.44372353	      2.42229499	     -0.23889663	     -0.81117999	      2.42229499	     -0.16619086	     -0.81117999	      1.99483117	     -0.13502916	     -0.68033160	      1.85234323	     -0.08308816	     -0.51678778	      1.70985529	     -1.03866015	     -3.77405212	     12.67960286	      0.00000000	      0.00000000	     12.65605307	     10.24335036	    -41.48797138	      6.89836904	    -66.22084971	    -77.77802869	     38.07070084	     88.30197273	    -48.75618801	     21.23496627	     -6.83608710	    -18.24827738	     26.34758939	     50.33684026	     87.74798831	    -15.22492577	      8.27391935
      1.35000000	     -3.23257590	     -0.53990214	    107.32435990	      0.25183268	      0.74897300	      0.84298138	      2.49641597	     -2.49934149	    -18.13430199	     16.17951996	      0.28238589	     33.60222870	      7.50635853	      0.00000000	      9.67290194	     -1.93106006	     -3.34850849	     25.86863108	      0.45149279	     33.72961776	      9.09275794	      0.00000000	     -0.17092151	     -0.29467208	      2.18130023	     -0.31741833	     -0.39191386	      2.31763149	     -0.28080694	     -0.71646569	      2.31763149	     -0.19534619	     -0.71646569	      1.90863770	     -0.15871771	     -0.60089530	      1.77230644	     -0.09766455	     -0.45644705	      1.63597517	     -1.22087523	     -3.33338947	     12.13173748	      0.00000000	      0.00000000	     11.34759876	      9.88021989	    -40.55733221	     30.23619614	    -67.17319446	    -52.82620421	     37.38638054	     88.36512286	    -45.11974481	     21.84138700	     -5.93962482	    -17.43633411	     27.36998109	     48.16132933	     87.90215288	    -14.80504531	      5.20573502
      1.36666667	     -3.44613779	     -0.03960511	    107.56695811	      0.25383373	      0.74936054	      0.84416581	      2.12710034	     -2.57685876	    -18.67636351	     16.55602331	      0.28895712	     33.53573843	      7.96046155	      0.00000000	      9.20653757	     -1.96627092	     -3.10766768	     25.89593327	      0.45196930	     33.80613053	      9.17419161	      0.00000000	     -0.18375185	     -0.26484979	      2.05154019	     -0.34124556	     -0.35225023	      2.17976146	     -0.30188591	     -0.64395579	      2.17976146	     -0.21000999	     -0.64395579	      1.79509767	     -0.17063197	     -0.54008170	      1.66687641	     -0.10499581	     -0.41025233	      1.53865515	     -1.31252107	     -2.99603383	     11.41005110	      0.00000000	      0.00000000	      9.53955716	      9.12715757	    -38.75973384	     54.09835534	    -64.14375647	    -28.27345617	     34.87528901	     88.07860189	    -35.33597244	     20.43205469	     -5.18535780	    -16.90715075	     28.53270794	     46.31597326	     87.96120697	    -14.00698233	      2.50671700
      1.38333333	     -3.82686957	      0.28261315	    107.93401269	      0.25660652	      0.74933981	      0.84427174	      1.82571674	     -2.81630408	    -19.38483687	     16.92352215	      0.29537118	     33.69571296	      8.45521873	      0.00000000	      8.76965549	     -1.87908584	     -2.98229257	     25.81099388	      0.45048683	     33.89199961	      9.52839699	      0.00000000	     -0.16098197	     -0.25812211	      1.99533317	     -0.29895962	     -0.34330241	      2.12004150	     -0.26447728	     -0.62759811	      2.12004150	     -0.18398629	     -0.62759811	      1.74591653	     -0.14948786	     -0.52636261	      1.62120820	     -0.09198510	     -0.39983115	      1.49649988	     -1.14987812	     -2.91992897	     11.09744450	      0.00000000	      0.00000000	      7.52564282	      8.15713332	    -37.08543184	     71.09175917	    -58.56594397	     -9.41222236	     30.23218833	     86.07999059	    -24.43205450	     15.32658094	     -4.18006819	    -16.86542217	     30.73798941	     44.70714921	     87.89895144	    -13.06243260	      0.23792120
